<svg width="21" height="21" viewBox="0 0 21 21" fill="none" xmlns="http://www.w3.org/2000/svg">
<path d="M3.40527 2.96592C3.40527 2.21143 3.705 1.48783 4.2385 0.954324C4.77201 0.420816 5.49561 0.121094 6.2501 0.121094C7.0046 0.121094 7.72819 0.420816 8.2617 0.954324C8.79521 1.48783 9.09493 2.21143 9.09493 2.96592C9.09493 3.72042 8.79521 4.44401 8.2617 4.97752C7.72819 5.51103 7.0046 5.81075 6.2501 5.81075C5.49561 5.81075 4.77201 5.51103 4.2385 4.97752C3.705 4.44401 3.40527 3.72042 3.40527 2.96592Z" fill="#787878"/>
<path d="M13.0481 5.21366L13.1078 5.25917C13.7113 5.70653 14.4673 5.89701 15.2107 5.78904C15.9542 5.68107 16.6247 5.28341 17.0761 4.68286C17.5274 4.08231 17.7229 3.32761 17.6198 2.58347C17.5167 1.83933 17.1235 1.16616 16.526 0.710879C15.9284 0.255593 15.175 0.0551528 14.4302 0.1533C13.6854 0.251448 13.0097 0.640214 12.5504 1.23476C12.0912 1.8293 11.8858 2.58135 11.979 3.32679C12.0723 4.07222 12.4566 4.75052 13.0481 5.21366Z" fill="#787878"/>
<path d="M8.05288 7.23509C8.23154 6.89679 8.4766 6.598 8.7734 6.35659C9.0702 6.11519 9.41264 5.93613 9.78024 5.83013C10.1478 5.72413 10.533 5.69336 10.9128 5.73967C11.2926 5.78598 11.6591 5.90841 11.9905 6.09964C12.3218 6.29088 12.6112 6.54698 12.8413 6.85263C13.0714 7.15829 13.2375 7.50721 13.3296 7.87853C13.4217 8.24985 13.438 8.63594 13.3775 9.0137C13.3169 9.39146 13.1808 9.75313 12.9773 10.0771C12.5857 10.7003 11.9679 11.1475 11.2535 11.3247C10.5392 11.5019 9.78393 11.3954 9.14647 11.0275C8.50901 10.6596 8.03894 10.059 7.83501 9.3518C7.63109 8.64461 7.70918 7.88591 8.05288 7.23509Z" fill="#787878"/>
<path d="M2.69417 7.23438H6.49201C6.33555 7.67959 6.2502 8.15894 6.2502 8.65679C6.2502 9.7492 6.66128 10.7477 7.33693 11.5016H6.96141C6.22807 11.5015 5.51261 11.728 4.91297 12.1502C4.31333 12.5724 3.85881 13.1695 3.61162 13.86C3.13417 13.6682 2.68712 13.408 2.28451 13.0876C1.21486 12.227 0.560547 10.9554 0.560547 9.368C0.560547 8.80212 0.785338 8.25943 1.18547 7.8593C1.5856 7.45917 2.1283 7.23438 2.69417 7.23438Z" fill="#787878"/>
<path d="M14.0738 11.5016C15.6171 11.5016 16.9314 12.4845 17.4221 13.86C17.9057 13.6623 18.3538 13.4048 18.7507 13.0876C19.8203 12.227 20.4746 10.9554 20.4746 9.368C20.4746 8.80212 20.2498 8.25943 19.8497 7.8593C19.4496 7.45917 18.9069 7.23438 18.341 7.23438H14.5432C14.6996 7.67959 14.785 8.15894 14.785 8.65679C14.7863 9.70669 14.3992 10.72 13.6982 11.5016H14.0738Z" fill="#787878"/>
<path d="M16.0467 14.2419C16.1505 14.4922 16.2074 14.7682 16.2074 15.0555C16.2074 16.6429 15.5546 17.9146 14.4835 18.7751C13.4295 19.6215 12.0156 20.034 10.5178 20.034C9.01999 20.034 7.60611 19.6215 6.5521 18.7751C5.48244 17.9146 4.82813 16.6429 4.82813 15.0555C4.82738 14.7751 4.88206 14.4973 4.98902 14.2381C5.09597 13.9789 5.25311 13.7434 5.45138 13.5451C5.64966 13.3469 5.88516 13.1897 6.14436 13.0828C6.40357 12.9758 6.68135 12.9211 6.96175 12.9219H14.0738C14.4964 12.9218 14.9095 13.0472 15.2608 13.2822C15.612 13.5172 15.8856 13.8512 16.0467 14.2419Z" fill="#787878"/>
</svg>
